<svg
  xmlns="http://www.w3.org/2000/svg"
  width="24"
  height="24"
  viewBox="0 0 24 24"
  fill="none"
  stroke="currentColor"
  stroke-width="2"
  stroke-linecap="round"
  stroke-linejoin="round"
>
  <circle cx="12" cy="12" r="10" />
  <path d="M14.9999 9.42957V13.9793H13.7279V19.3835H10.2714V13.9793H9.00013V9.42957C8.99833 9.33543 9.01583 9.24191 9.05155 9.15479C9.08727 9.06766 9.14045 8.98877 9.20781 8.92298C9.27371 8.8555 9.3527 8.8022 9.43995 8.76636C9.52719 8.73051 9.62084 8.71289 9.71515 8.71455H14.2849C14.4703 8.71455 14.6365 8.78353 14.7819 8.92224C14.8518 8.98671 14.9074 9.06522 14.945 9.15264C14.9826 9.24006 15.0013 9.33443 14.9999 9.42957ZM10.4495 6.56949C10.4495 5.52366 10.9657 5 11.9997 5C13.0336 5 13.5499 5.52292 13.5499 6.56949C13.5499 7.60271 13.0329 8.11969 11.9997 8.11969C10.9664 8.11969 10.4495 7.60271 10.4495 6.56949Z" fill="currentColor" stroke-width="0"/>
</svg>
