<svg
  xmlns="http://www.w3.org/2000/svg"
  width="24"
  height="24"
  viewBox="0 0 24 24"
  fill="none"
  stroke="currentColor"
  stroke-width="2"
  stroke-linecap="round"
  stroke-linejoin="round"
>
  <circle cx="12" cy="12" r="10" />
  <path d="M7.78467 10.8573C7.97533 9.63067 8.46867 8.68133 9.26667 8.00867C10.064 7.33667 11.034 7 12.1773 7C13.748 7 14.9987 7.50667 15.9273 8.518C16.856 9.52933 17.3207 10.8273 17.3207 12.4107C17.3207 13.9467 16.838 15.2233 15.874 16.2407C14.9093 17.258 13.66 17.7673 12.1233 17.7673C10.9927 17.7673 10.0167 17.4287 9.19533 16.7493C8.37333 16.0707 7.88 15.1067 7.71267 13.8567H10.2313C10.2913 15.0713 11.0227 15.6787 12.428 15.6787C13.13 15.6787 13.696 15.3747 14.124 14.768C14.5533 14.1613 14.7673 13.3507 14.7673 12.3393C14.7673 11.2793 14.5713 10.4733 14.1787 9.91933C13.7853 9.366 13.2207 9.08933 12.482 9.08933C11.148 9.08933 10.398 9.67867 10.232 10.8567H10.964L8.982 12.8387L7 10.8567L7.78467 10.8573Z" fill="currentColor" stroke-width="0"/>
</svg>
